# AST/ASF file generated using VICON BodyLanguage
# -----------------------------------------------
:version 1.10
:name VICON
:units
  mass 1.0
  length 0.45
  angle deg
:documentation
   .ast/.asf automatically generated from VICON data using
   VICON BodyBuilder and BodyLanguage model FoxedUp or BRILLIANT.MOD
:root
   order TX TY TZ RX RY RZ
   axis XYZ
   position 0 0 0  
   orientation 0 -0 0 
:bonedata
  begin
     id 1 
     name lhipjoint
     direction 0.515797 -0.759363 0.396637 
     length 2.47888 
     axis 0 -0 0  XYZ
  end
  begin
     id 2 
     name lfemur
     direction 0.34202 -0.939693 0  
     length 6.81885  
     axis 0 -0 20  XYZ
    dof rx ry rz
    limits (-160.0 20.0)
           (-70.0 70.0)
           (-60.0 70.0)
  end
  begin
     id 3 
     name ltibia
     direction 0.342037 -0.939687 0   
     length 7.89258   
     axis 0 -0 20   XYZ
    dof rx
    limits (-10.0 170.0)
  end
  begin
     id 4 
     name lfoot
     direction 0.173497 -0.476678 0.861787   
     length 2.51543   
     axis -90 -1.13533e-015 20   XYZ
    dof rx rz
    limits (-45.0 90.0)
           (-70.0 20.0)
  end
  begin
     id 5 
     name ltoes
     direction 1.53564e-011 -4.21897e-011 1   
     length 1.21388   
     axis -90 -1.13533e-015 20   XYZ
    dof rx
    limits (-90.0 20.0)
  end
  begin
     id 6 
     name rhipjoint
     direction -0.489454 -0.772941 0.403729   
     length 2.43534  
     axis 0 -0 0  XYZ 
  end
  begin
     id 7 
     name rfemur
     direction -0.34202 -0.939693 0   
     length 7.10357   
     axis 0 -0 -20   XYZ
    dof rx ry rz
    limits (-160.0 20.0)
           (-70.0 70.0)
           (-70.0 60.0)
  end
  begin
     id 8 
     name rtibia
     direction -0.34202 -0.939693 0   
     length 9.16127   
     axis 0 -0 -20   XYZ
    dof rx
    limits (-10.0 170.0)
 end
 begin
     id 9 
     name rfoot
     direction -0.270974 -0.748671 0.605033   
     length 1.74894  
     axis -90 1.13533e-015 -20   XYZ
    dof rx rz
    limits (-45.0 90.0)
           (-20.0 70.0)
  end
  begin
     id 10 
     name rtoes
     direction -1.53557e-011 -4.21759e-011 1   
     length 0.787585   
     axis -90 1.13533e-015 -20   XYZ
    dof rx
    limits (-90.0 20.0)
  end
  begin
     id 11 
     name lowerback
     direction -0.0140249 0.999561 0.0260968   
     length 2.16963   
     axis 0 -0 0   XYZ
    dof rx ry rz
    limits (-20.0 45.0)
           (-30.0 30.0)
           (-30.0 30.0)
  end
  begin
     id 12 
     name upperback
     direction 0.00860018 0.999959 -0.002711   
     length 2.1726   
     axis 0 -0 0   XYZ
    dof rx ry rz
    limits (-20.0 45.0)
           (-30.0 30.0)
           (-30.0 30.0)
  end
  begin
     id 13 
     name thorax
     direction 0.015211 0.999782 -0.0143191   
     length 2.17061   
     axis 0 -0 0   XYZ
    dof rx ry rz
    limits (-20.0 45.0)
           (-30.0 30.0)
           (-30.0 30.0)
  end
  begin
     id 14 
     name lowerneck
     direction -0.0140143 0.999447 0.030145   
     length 2.26749   
     axis 0 -0 0   XYZ
    dof rx ry rz
    limits (-20.0 45.0)
           (-30.0 30.0)
           (-30.0 30.0)
  end
  begin
     id 15 
     name upperneck
     direction 0.118062 0.961438 -0.248392   
     length 2.22728   
     axis 0 -0 0   XYZ
    dof rx ry rz
    limits (-20.0 45.0)
           (-30.0 30.0)
           (-30.0 30.0)
  end
  begin
     id 16
     name head
     direction 0.0431885 0.9954 -0.085514  
     length 2.28786  
     axis 0 -0 0   XYZ
    dof rx ry rz
    limits (-20.0 45.0)
           (-30.0 30.0)
           (-30.0 30.0)
  end
  begin
     id 17 
     name lclavicle
     direction 0.912126 0.409548 0.0172323  
     length 4.31571  
     axis 0 -0 0   XYZ
    dof ry rz
    limits (-20.0 10.0)
           (0.0 20.0)
  end
  begin
     id 18 
     name lhumerus
     direction 1 -4.48977e-011 1.93091e-027   
     length 5.13658   
     axis 180 -30 -90   XYZ
    dof rx ry rz
    limits (-60.0 90.0)
           (-90.0 90.0)
           (-90.0 90.0)
  end
  begin
     id 19
     name lradius
     direction 1 -4.48916e-011 6.84018e-027   
     length 3.22473   
     axis 180 -30 -90   XYZ
    dof rx
    limits (-10.0 170.0)
  end
  begin
     id 20
     name lwrist
     direction 1 -4.48987e-011 7.01981e-027   
     length 1.61236   
     axis -4.37994e-015 90 90   XYZ
    dof ry
    limits (-180.0 0.0)
 end
  begin
     id 21 
     name lhand
     direction 1 -4.49037e-011 1.40335e-026   
     length 0.936406   
     axis -8.96029e-015 90 90   XYZ
    dof rx rz
    limits (-90.0 90.0)
           (-45.0 45.0)
  end
  begin
     id 22 
     name lfingers
     direction 1 -4.48886e-011 2.8104e-026   
     length 0.754955   
     axis -1.79203e-014 90 90   XYZ
    dof rx
    limits (0.0 90.0)
  end
  begin
     id 23
     name lthumb
     direction 0.707107 -6.34937e-011 0.707107   
     length 1.08397   
     axis -90 45 -4.48555e-014   XYZ
    dof rx rz
    limits (-45.0 45.0)
           (-45.0 45.0)
  end
  begin
     id 24 
     name rclavicle
     direction -0.947962 0.317997 0.0156638   
     length 4.86918  
     axis 0 -0 0   XYZ 
    dof ry rz
    limits (-10.0 20.0)
           (-20.0 0.0)
  end
  begin
     id 25 
     name rhumerus
     direction -1 -4.48951e-011 2.80534e-018  
     length 5.60911   
     axis 180 30 90   XYZ
    dof rx ry rz
    limits (-90.0 60.0)
           (-90.0 90.0)
           (-90.0 90.0)
  end
  begin
     id 26 
     name rradius
     direction -1 -4.4898e-011 2.11315e-027   
     length 3.38704   
     axis 180 30 90   XYZ
    dof rx
    limits (-10.0 170.0)
  end
  begin
     id 27 
     name rwrist
     direction -1 -4.48933e-011 7.02314e-027   
     length 1.69352   
     axis -4.37994e-015 -90 -90   XYZ
    dof ry
    limits (-180.0 0.0)
  end
  begin
     id 28
     name rhand
     direction -1 -4.48937e-011 1.40458e-026   
     length 0.755878   
     axis -8.96029e-015 -90 -90   XYZ
    dof rx rz
    limits (-90.0 90.0)
           (-45.0 45.0)
  end
  begin
     id 29
     name rfingers
     direction -1 -4.4901e-011 2.80737e-026   
     length 0.609409   
     axis -1.79203e-014 -90 -90   XYZ
    dof rx
    limits (0.0 90.0)
  end
  begin
     id 30
     name rthumb
     direction -0.707107 -6.34968e-011 0.707107   
     length 0.874992   
     axis -90 -45 4.48555e-014   XYZ
    dof rx rz
    limits (-45.0 45.0)
           (-45.0 45.0)
  end
:hierarchy
  begin
    root lhipjoint rhipjoint lowerback
    lhipjoint lfemur
    lfemur ltibia
    ltibia lfoot
    lfoot ltoes
    rhipjoint rfemur
    rfemur rtibia
    rtibia rfoot
    rfoot rtoes
    lowerback upperback
    upperback thorax
    thorax lowerneck lclavicle rclavicle
    lowerneck upperneck
    upperneck head
    lclavicle lhumerus
    lhumerus lradius
    lradius lwrist
    lwrist lhand lthumb
    lhand lfingers
    rclavicle rhumerus
    rhumerus rradius
    rradius rwrist
    rwrist rhand rthumb
    rhand rfingers
  end

#!OML:ASF C:\ViconDB\ViconDB\414\Spring2016\041811\Spring2016.ASF
:FULLY-SPECIFIED
:DEGREES
16
root 11.2405 17.7751 18.598 9.84782 -85.6161 -9.25312
lowerback -1.3862 -0.862329 -3.09936
upperback 0.753836 -1.10181 0.952479
thorax 1.62856 -0.58994 2.68497
lowerneck 6.02199 -10.9493 -27.4753
upperneck 17.4829 -20.8483 23.4667
head 10.0466 -11.1558 10.8735
rclavicle 4.4548e-015 -4.24902e-015
rhumerus 4.47327 -28.9778 0.749519
rradius 54.1478
rwrist 13.7538
rhand -52.7293 -25.6213
rfingers 7.12502
rthumb -25.2065 -53.9767
lclavicle 4.4548e-015 -4.24902e-015
lhumerus -3.9374 9.08192 -1.05083
lradius 43.3194
lwrist 4.82101
lhand -42.1131 30.5944
lfingers 7.12502
lthumb -15.0041 60.0308
rfemur 165.166 39.8677 -176.165
rtibia 34.1894
rfoot -20.4215 -49.934
rtoes -15.5757
lfemur -9.7879 -17.5875 -10.6551
ltibia 37.6733
lfoot -34.9623 14.4211
ltoes -14.9156
17
root 11.2443 17.7647 18.5745 8.62188 -85.8098 -8.03756
lowerback -1.13415 -0.848459 -3.1049
upperback 0.724013 -1.08986 0.861148
thorax 1.4538 -0.580124 2.59843
lowerneck 5.93544 -10.9821 -27.4009
upperneck 17.4248 -20.8847 23.5565
head 10.0565 -11.1593 10.883
rclavicle -1.2629e-014 -1.44119e-015
rhumerus 4.50408 -29.075 0.479238
rradius 54.7268
rwrist 13.3231
rhand -52.6068 -26.1673
rfingers 7.12502
rthumb -25.089 -54.5391
lclavicle -1.2629e-014 -1.44119e-015
lhumerus -3.90619 9.56708 -0.958975
lradius 43.2806
lwrist 4.77673
lhand -42.126 30.8004
lfingers 7.12502
lthumb -15.0166 60.2359
rfemur 165.412 39.4735 -176.167
rtibia 34.0852
rfoot -21.5173 -50.1444
rtoes -18.3754
lfemur -9.86207 -17.4237 -10.6884
ltibia 37.8717
lfoot -35.043 14.3335
ltoes -14.9454
18
root 11.2486 17.7548 18.5469 6.39814 -86.0257 -5.84474
lowerback -0.86285 -0.817014 -3.25066
upperback 0.692445 -1.05411 0.816013
thorax 1.26857 -0.559795 2.63907
lowerneck 5.93165 -10.996 -27.4709
upperneck 17.3304 -20.9125 23.6667
head 10.0567 -11.1721 10.9306
rclavicle -8.98336e-015 -1.16786e-015
rhumerus 4.51205 -29.0797 0.339591
rradius 55.4058
rwrist 12.5977
rhand -52.7019 -26.3041
rfingers 7.12502
rthumb -25.1802 -54.6632
lclavicle -8.98336e-015 -1.16786e-015
lhumerus -3.98024 9.87976 -0.787954
lradius 43.4778
lwrist 5.32603
lhand -42.356 31.0984
lfingers 7.12502
lthumb -15.2381 60.5172
rfemur 165.383 38.7741 -176.415
rtibia 34.0997
rfoot -20.0884 -50.3759
rtoes -18.0376
lfemur -9.88677 -16.9612 -10.7263
ltibia 37.939
lfoot -34.9072 14.0443
ltoes -14.9833
19
root 11.2521 17.7426 18.5168 4.51279 -86.1183 -4.03028
lowerback -0.569456 -0.82404 -3.32451
upperback 0.696109 -1.07184 0.744185
thorax 1.10893 -0.566283 2.61065
lowerneck 5.80872 -11.0406 -27.419
upperneck 17.3048 -20.9499 23.7096
head 10.082 -11.1753 10.922
rclavicle 5.19946e-015 1.19271e-015
rhumerus 4.43222 -29.0049 0.223167
rradius 56.109
rwrist 11.9497
rhand -52.9793 -26.5076
rfingers 7.12502
rthumb -25.4459 -54.8291
lclavicle 5.19946e-015 1.19271e-015
lhumerus -4.11582 10.1094 -0.802385
lradius 43.725
lwrist 5.70011
lhand -42.5012 31.3777
lfingers 7.12502
lthumb -15.378 60.7858
rfemur 165.185 38.4918 -176.633
rtibia 34.1722
rfoot -18.9154 -50.6474
rtoes -16.5636
lfemur -9.8528 -16.4219 -10.6626
ltibia 37.9536
lfoot -34.7594 13.5518
ltoes -14.9858
20
root 11.2521 17.7345 18.4865 2.26469 -86.1156 -1.91394
lowerback -0.224474 -0.850909 -3.39014
upperback 0.704592 -1.11869 0.666875
thorax 0.927102 -0.586925 2.57257
lowerneck 5.81506 -11.0226 -27.4602
upperneck 17.185 -20.9425 23.8811
head 10.0651 -11.1701 10.9987
rclavicle 2.10898e-014 5.86415e-015
rhumerus 4.30604 -28.9214 0.162821
rradius 56.8734
rwrist 11.4891
rhand -53.3135 -26.6709
rfingers 7.12502
rthumb -25.766 -54.9463
lclavicle 2.10898e-014 5.86415e-015
lhumerus -4.17566 10.5197 -0.731533
lradius 43.8292
lwrist 5.55236
lhand -42.4462 31.6018
lfingers 7.12502
lthumb -15.325 61.014
rfemur 164.91 38.98 -176.793
rtibia 34.3062
rfoot -19.7017 -50.758
rtoes -16.429
lfemur -9.79787 -15.8912 -10.6179
ltibia 37.9447
lfoot -34.4949 13.0539
ltoes -15.0481
